<svg id="Capa_1" enable-background="new 0 0 508.506 508.506" height="512" viewBox="0 0 508.506 508.506" width="512" xmlns="http://www.w3.org/2000/svg"><g><g><path d="m114.338 31.894h24.17v83.657h-24.17z" fill="#78eac4" transform="matrix(.925 -.379 .379 .925 -18.515 53.453)"/><ellipse cx="108.15" cy="29.588" fill="#78eac4" rx="25.773" ry="25.773" transform="matrix(.255 -.967 .967 .255 51.98 126.628)"/><g><path d="m108.143 61.369c-.11 0-.22 0-.33-.002-3.313-.035-5.972-2.749-5.937-6.062.035-3.292 2.714-5.937 5.998-5.937.089 0 .18.001.27.001 5.391 0 10.604-2.231 14.33-6.141 2.286-2.398 6.085-2.489 8.483-.204 2.399 2.287 2.49 6.084.204 8.483-5.985 6.279-14.358 9.862-23.018 9.862z" fill="#518699"/></g><path d="m369.323 31.894h24.17v83.657h-24.17z" fill="#78eac4" transform="matrix(-.925 -.379 .379 -.925 706.364 286.587)"/><ellipse cx="399.681" cy="29.588" fill="#78eac4" rx="25.773" ry="25.773" transform="matrix(.967 -.255 .255 .967 5.654 102.822)"/><g><path d="m399.712 61.368c-9.194 0-18.096-4.047-24.122-11.053-2.161-2.512-1.876-6.3.636-8.461 2.514-2.161 6.302-1.876 8.462.636 4.017 4.669 10.089 7.226 16.233 6.84 3.318-.202 6.157 2.305 6.365 5.612s-2.305 6.157-5.611 6.365c-.656.04-1.31.061-1.963.061z" fill="#518699"/></g></g><path d="m377.888 494.902v-33.516c0-68.468-55.504-123.972-123.972-123.972-68.468 0-123.972 55.504-123.972 123.972v33.516z" fill="#78eac4"/><path d="m336.669 489.536v-31.667c0-45.704-37.05-82.754-82.754-82.754-45.704 0-82.754 37.05-82.754 82.754v31.667z" fill="#78eac4"/><path d="m262.599 380.937c23.936 10.766 40.773 36.316 40.773 66.134v7.174c0 11.168-9.053 20.221-20.221 20.221h-111.989v20.436h165.507v-31.667c0-42.771-32.449-77.957-74.07-82.298z" fill="#71afc4"/><g><path d="m171.162 504.697c-3.313 0-6-2.687-6-6v-35.828c0-48.939 39.814-88.754 88.753-88.754 3.314 0 6.001 2.687 6.001 6 0 3.314-2.686 6-6.001 6-42.322 0-76.753 34.432-76.753 76.754v35.828c0 3.313-2.687 6-6 6z" fill="#518699"/></g><path d="m288.9 389.545h-69.969c-86.946 0-157.43-70.484-157.43-157.43 0-86.946 70.484-157.43 157.43-157.43h69.969c86.946 0 157.43 70.484 157.43 157.43 0 86.946-70.484 157.43-157.43 157.43z" fill="#78eac4"/><path d="m288.9 74.684h-20.188c70.488 0 127.63 57.416 127.63 127.904v10.839c0 70.488-57.142 127.63-127.63 127.63h-79.581c-67.455 0-122.68-52.332-127.309-118.611-.205 3.288-.321 6.601-.321 9.941 0 86.946 70.484 157.43 157.43 157.43h69.969c86.946 0 157.43-70.484 157.43-157.43 0-86.945-70.484-157.703-157.43-157.703z" fill="#71afc4"/><g><path d="m288.9 395.544h-69.969c-19.602 0-38.774-3.435-56.984-10.21-3.105-1.156-4.687-4.61-3.531-7.716 1.155-3.106 4.607-4.686 7.716-3.531 16.867 6.275 34.631 9.457 52.8 9.457h69.968c18.166 0 35.929-3.181 52.794-9.455 3.107-1.155 6.561.427 7.715 3.531 1.156 3.106-.425 6.56-3.531 7.716-18.208 6.774-37.378 10.208-56.978 10.208z" fill="#518699"/></g><g><path d="m380.143 109.812c-1.252 0-2.514-.39-3.593-1.199-7.373-5.524-8.976-6.513-17.147-10.58-2.967-1.477-4.174-5.079-2.697-8.045 1.476-2.966 5.075-4.173 8.045-2.698 8.776 4.369 11.084 5.792 18.995 11.72 2.652 1.987 3.191 5.747 1.204 8.399-1.179 1.573-2.982 2.403-4.807 2.403z" fill="#518699"/></g><g><path d="m127.758 109.761c-1.876 0-3.723-.877-4.893-2.521-1.921-2.7-1.29-6.446 1.409-8.367 6.799-4.839 11.345-7.8 18.789-11.534 2.961-1.487 6.568-.29 8.053 2.672 1.486 2.962.289 6.567-2.672 8.053-6.784 3.404-10.792 6.016-17.212 10.585-1.055.75-2.27 1.112-3.474 1.112z" fill="#518699"/></g><g><ellipse cx="173.552" cy="299.209" fill="#518699" rx="19.327" ry="34.221" transform="matrix(.707 -.707 .707 .707 -160.74 210.355)"/><ellipse cx="334.279" cy="299.209" fill="#518699" rx="34.221" ry="19.327" transform="matrix(.707 -.707 .707 .707 -113.665 324.008)"/><g><path d="m174.225 251.101c-.918 0-1.849-.212-2.723-.657-.028-.014-5.282-2.598-11.51-2.598s-11.482 2.585-11.534 2.61c-2.957 1.474-6.56.288-8.047-2.66-1.488-2.949-.326-6.539 2.616-8.04.784-.4 7.921-3.91 16.966-3.91s16.182 3.51 16.966 3.91c2.951 1.507 4.123 5.121 2.616 8.072-1.062 2.077-3.167 3.273-5.35 3.273z" fill="#518699"/></g><g><path d="m362.072 251.101c-.918 0-1.85-.212-2.723-.657-.028-.014-5.283-2.598-11.511-2.598s-11.481 2.584-11.534 2.61c-2.952 1.473-6.559.289-8.047-2.66s-.326-6.539 2.615-8.04c.784-.4 7.921-3.91 16.966-3.91s16.182 3.51 16.966 3.91c2.951 1.507 4.123 5.121 2.616 8.072-1.06 2.077-3.165 3.273-5.348 3.273z" fill="#518699"/></g><g><path d="m253.915 320.692c-12.999 0-23.575-10.576-23.575-23.575 0-3.314 2.687-6 6-6 3.314 0 6 2.686 6 6 0 6.382 5.192 11.575 11.575 11.575s11.575-5.192 11.575-11.575c0-3.314 2.686-6 6-6s6 2.686 6 6c0 12.999-10.575 23.575-23.575 23.575z" fill="#518699"/></g></g><g><path d="m191.11 368.86c-2.328 0-4.542-1.363-5.518-3.638-9.602-22.405-28.642-22.335-29.447-22.318-3.297.034-6.044-2.555-6.125-5.85-.082-3.295 2.487-6.039 5.782-6.145 1.124-.037 27.906-.547 40.82 29.586 1.306 3.046-.105 6.573-3.151 7.878-.771.331-1.572.487-2.361.487z" fill="#518699"/></g><g><path d="m316.719 368.86c-.788 0-1.59-.156-2.36-.487-3.046-1.305-4.457-4.832-3.151-7.878 12.918-30.142 39.692-29.622 40.82-29.586 3.312.107 5.91 2.878 5.804 6.19-.105 3.3-2.874 5.91-6.154 5.805-.916-.011-19.866-.021-29.44 22.318-.976 2.275-3.191 3.638-5.519 3.638z" fill="#518699"/></g><g><path d="m163.919 138.108c-3.231 0-6.403-1.563-8.33-4.454-3.063-4.595-1.822-10.804 2.773-13.867 1.693-1.129 6.919-4.396 10.72-5.941 5.114-2.08 10.949.382 13.029 5.5 2.079 5.117-.383 10.95-5.5 13.029-1.552.631-5.121 2.697-7.156 4.053-1.703 1.136-3.631 1.68-5.536 1.68z" fill="#fff"/></g><g><path d="m116.465 182.594c-1.831 0-3.683-.502-5.344-1.555-4.665-2.956-6.05-9.135-3.094-13.8 9.089-14.341 19.626-24.523 26.866-30.54 4.248-3.529 10.552-2.948 14.082 1.299 3.53 4.248 2.948 10.552-1.299 14.083-6.134 5.098-15.061 13.723-22.756 25.865-1.902 3.003-5.143 4.648-8.455 4.648z" fill="#fff"/></g><path d="m471.639 424.222 8.214 23.098c.352.989 1.048 1.773 1.927 2.168l20.521 9.246c2.899 1.306 2.899 5.926 0 7.232l-20.521 9.246c-.879.396-1.575 1.18-1.927 2.168l-8.214 23.098c-1.16 3.263-5.265 3.263-6.425 0l-8.214-23.098c-.352-.989-1.048-1.773-1.927-2.168l-20.521-9.246c-2.899-1.306-2.899-5.926 0-7.232l20.521-9.246c.879-.396 1.575-1.18 1.927-2.168l8.214-23.098c1.161-3.263 5.265-3.263 6.425 0z" fill="#bdf4e3"/><path d="m29.124 417.626 6.093 17.133c.261.734.777 1.315 1.429 1.609l15.222 6.858c2.151.969 2.151 4.395 0 5.364l-15.222 6.858c-.652.294-1.168.875-1.429 1.609l-6.093 17.133c-.861 2.421-3.905 2.421-4.766 0l-6.093-17.133c-.261-.734-.777-1.315-1.429-1.609l-15.222-6.858c-2.151-.969-2.151-4.395 0-5.364l15.222-6.858c.652-.294 1.168-.875 1.429-1.609l6.093-17.133c.861-2.42 3.905-2.42 4.766 0z" fill="#bdf4e3"/><g fill="#78eac4"><ellipse cx="80.782" cy="401.405" rx="17.937" ry="17.937" transform="matrix(.23 -.973 .973 .23 -328.445 387.802)"/><path d="m409.1 409.877c0-4.273 3.464-7.737 7.737-7.737s7.737 3.464 7.737 7.737-3.464 7.737-7.737 7.737c-4.273.001-7.737-3.464-7.737-7.737"/><ellipse cx="490.569" cy="337.489" rx="17.937" ry="17.937" transform="matrix(.23 -.973 .973 .23 49.398 737.396)"/><path d="m25.852 333.956c0-4.273 3.464-7.737 7.737-7.737s7.737 3.464 7.737 7.737-3.464 7.737-7.737 7.737-7.737-3.464-7.737-7.737"/></g></g></svg>